<?xml version="1.0" encoding="UTF-8"?>
<!DOCTYPE svg PUBLIC "-//W3C//DTD SVG 1.1//EN" "http://www.w3.org/Graphics/SVG/1.1/DTD/svg11.dtd">
<!-- Creator: CorelDRAW 2018 (64 Bit Versão de avaliação) -->
<svg xmlns="http://www.w3.org/2000/svg" xml:space="preserve" width="553px" height="457px" version="1.1" style="shape-rendering:geometricPrecision; text-rendering:geometricPrecision; image-rendering:optimizeQuality; fill-rule:evenodd; clip-rule:evenodd"
viewBox="0 0 551.6 455.12"
 xmlns:xlink="http://www.w3.org/1999/xlink">
 <defs>
  <style type="text/css">
   <![CDATA[
    .fil3 {fill:#4D2B15}
    .fil2 {fill:#AB6F2E}
    .fil0 {fill:#D48B3E}
    .fil1 {fill:#F0BB82}
   ]]>
  </style>
 </defs>
 <g id="Conteúdo_x0020_do_x0020_PowerClip">
  <metadata id="CorelCorpID_0Corel-Layer"/>
  <g id="_2526004739360">
   <path class="fil0" d="M355.65 31.62c108.22,0 195.95,87.72 195.95,195.94 0,108.22 -87.73,195.95 -195.95,195.95 -108.21,0 -195.94,-87.73 -195.94,-195.95 0,-108.22 87.73,-195.94 195.94,-195.94z"/>
   <path class="fil1" d="M131.67 191.78c72.72,0 131.68,58.95 131.68,131.67 0,72.72 -58.96,131.67 -131.68,131.67 -72.72,0 -131.67,-58.95 -131.67,-131.67 0,-72.72 58.95,-131.67 131.67,-131.67z"/>
   <path class="fil2" d="M245.52 389.64c-51.79,-35.26 -85.81,-94.69 -85.81,-162.08 0,-10.96 0.91,-21.71 2.64,-32.18 57.93,13.82 101,65.91 101,128.07 0,24.13 -6.5,46.74 -17.83,66.19z"/>
   <g>
    <g>
     <path class="fil3" d="M167.72 215.23c-6.1,-1.4 -18.34,-8.86 -21.57,-11.93 -7.54,-7.16 -9.65,-11.45 -5.23,-22.83 -12.14,7.74 -10.43,17.16 -10.2,27.28 0.27,12.24 1.79,23.07 3.51,34.89 5.75,31.25 20.68,67.82 42.1,90.93 3.55,3.83 6.26,5.89 9.17,9.71 1.57,0.94 0.56,0.3 2.14,1.61 0.96,0.8 1.27,1.09 2.23,1.86 1.61,1.28 2.99,2.6 4.76,3.6 -1.66,-2.78 -3.78,-4.83 -5.71,-7.44 -4.86,-6.57 -13.48,-17.68 -16.38,-24.85 -12.39,-22.38 -22.5,-53.62 -25.2,-83.58l-1.07 -14.78c3.11,0.95 6.4,3.25 9.58,4.75 3.14,1.48 5.91,2.6 9.1,3.75l0.64 0.25c10.58,4.71 29.71,8.91 42.45,10.94 8.1,1.3 15.57,2.4 23.59,3.25 4.99,0.52 22.39,0.71 25.19,2.36l41.47 -0.51c24.07,-1.18 50.33,-4.27 73.34,-10.53 14.41,-3.93 27.37,-10.31 31.46,-11.38 -5.48,47.59 -28.29,94.4 -63.03,121.79 -5.69,4.49 -30.03,22 -39.37,22.15 -5.33,5.39 -36.69,7.95 -42.42,7.85 -7.87,-0.13 -15.3,-0.94 -22.87,-2.55 -7.27,-1.55 -13.55,-4.3 -19.72,-5.68 7.13,5.89 22.39,11.16 33.42,13.96 14.16,3.6 29.28,3.99 44.36,2.34 29.21,-4.87 56.82,-19.05 76.56,-40.34 47.35,-51.05 47.5,-99.31 52.74,-109.09 8.94,-16.68 40.98,-18.48 35.56,14.91 -2.52,15.57 -11.8,30.25 -19.07,39.99 -13.04,17.47 -14.87,17.06 -27.89,30.75 9.48,-2.42 26.74,-17.34 33.48,-24.48 17.18,-18.17 42.07,-58.09 24.23,-81.93 -3.48,-4.65 -11.38,-8.73 -19.61,-9.74 -11.5,-1.41 -16.11,1.72 -25.37,4.21 0.16,-9.89 0.85,-14.86 -5.07,-21.22 -11.55,-12.42 -38.42,-23.29 -53.01,-24.91 11.09,5.08 37.31,14.09 34.08,31.23 -1.14,6.05 -6.03,10.02 -9.21,12.76 -13.53,11.62 -44.09,19.24 -66.04,22.41 -27.81,4.03 -55.26,4.72 -83.71,2.98 -12.62,-0.77 -26.47,-2.61 -38.54,-4.9 -8.06,-1.53 -29.42,-6.23 -34.87,-9.84z"/>
     <path class="fil3" d="M270.06 421.48c-16.7,1.3 -41.24,0.03 -58.43,-1.21 -19.24,-1.4 -35.5,-4.4 -53.71,-6.9l0.97 0.55c9.77,4.84 50.48,10.07 59.67,10.97 11.24,1.1 22.08,1.62 33.55,2.14 11.76,0.52 24.09,-0.39 35.77,0.18 34.29,-1.5 69.05,-3.77 99.79,-13.29 60.1,-18.62 11.08,-41.01 -11.74,-43.84l2.35 1.52c5.12,2.67 7.99,2.82 13.39,7.88 5.52,5.19 6.51,10.81 0.62,16.44 -20.97,20.06 -93.55,23.75 -122.23,25.56z"/>
     <path class="fil3" d="M282.11 90.51c4.81,3.88 15.11,17.42 19.06,24.28 5.14,8.96 10.76,20.68 9.95,34 -1.28,21.24 -13.17,29.39 -29.58,35.57 -9.53,3.59 -14.53,3.63 -17.02,4.58 13.1,2.33 29.38,-1.28 39.25,-7.05 8.72,-5.1 16.33,-14.87 19.12,-28.79 2.92,-14.57 -0.71,-28.26 -6.2,-39.42 -6.96,-14.14 -12.61,-17.91 -20.72,-28.08 -5.1,-5.45 -15.06,-13.98 -20.92,-19.43 -9.96,-9.29 -21.36,-20.14 -20.11,-34.62 0.44,-5.18 2.12,-6.4 3.33,-10.07 -11.64,10.22 -8.6,26.79 -0.43,39.26 5.78,8.81 23.63,28.24 24.27,29.77z"/>
     <path class="fil3" d="M237.56 113.05c4.78,3.14 19.75,16.92 24.15,21.32 3.56,3.55 6.76,8.15 8.31,14.25 2.29,8.98 0.62,12.94 -0.95,20.76 7.16,-5.57 9.17,-23.98 2.39,-36.54 -7.37,-13.66 -18.4,-20.95 -21.93,-26.92 -4.64,-3.05 -16.11,-16.49 -19.64,-21.32 -18.23,-24.92 -17.43,-53.2 2.84,-75.2 5.21,-5.66 7.52,-5.84 11.76,-9.4 -10.95,0.93 -23.3,12.45 -27.58,18.26 -6.46,8.76 -11.79,20.54 -12.24,34.5 -0.95,30.01 19.89,47.34 32.89,60.29z"/>
    </g>
    <g>
     <path class="fil3" d="M72.48 399.94c-2.24,-0.51 -3.05,-1.04 -4.88,-2.03 -13.42,-7.26 -22.49,-18.51 -23.88,-34.64 0.41,0.34 4.58,10.54 5.67,12.52 1.98,3.59 4.31,7.19 6.87,10.14 5.77,6.64 10.26,9.69 16.22,14.01zm-0.63 -58.67c2.59,-1.81 17.84,0.14 22.43,1.16 1.87,0.42 5.89,1.65 7.08,1.59 0.25,-1.79 1.61,-3.15 1.65,-4.99 -5.83,-1.15 -7.18,-2.07 -14.74,-2.95 -17.34,-2.02 -35.51,2.88 -47.27,15.96 -22.42,24.95 -8.8,64.45 19.57,85.81 6.9,5.19 9.11,6.01 15.98,9.66l10.18 3.99c14.89,4.61 32.65,5.66 48.26,-1.87 2.6,-1.25 14.57,-7.39 11.52,-11.1 -0.53,-0.65 -5.04,-1.5 -7.6,-3.27 -2.15,-1.48 -0.81,-1.67 -3.38,-2.57 -3.55,-1.25 -7.41,-6.42 -9.19,-9.86 -3.19,-6.14 -1.33,-6.66 -4.62,-8.66 -2.91,-1.76 -7.55,-4.61 -10.88,-5.88 -10.14,-3.89 -8.06,-3.07 -19.17,-6.08 -15.84,-4.28 -31.79,-14.93 -39.56,-31.68 -1.97,-4.26 -5.67,-15.63 -4.32,-19.16 6.06,12.8 13.59,22.19 23.31,29 4.62,3.23 9.79,6.08 14.24,7.88 1.9,0.77 13.47,4.73 15.57,4.4 -3.64,-7.69 -4.72,-17.29 -4.51,-24.54 0.1,-3.8 0.46,-7.29 1.13,-10.85 0.36,-1.9 0.7,-3.23 1.15,-5.19 0.46,-1.99 1.28,-3.84 1.29,-5.09 -6.51,-2.68 -20.66,-5.59 -28.12,-5.71z"/>
     <path class="fil3" d="M148.02 431.15c7.35,-3.95 12.06,-6.28 18.22,-11.51 7.9,-6.69 8.78,-10.15 12.34,-13.95 -1.49,2.92 -0.88,3.13 -4.21,7.69 -6.19,8.48 -15.7,15.61 -26.35,17.77zm44.39 -11.15c3.11,-3.89 12.86,-9.6 22.44,-24.72 4.78,-7.55 8.9,-16.5 10.59,-25.2 0.25,-1.32 0.44,-2.84 0.81,-3.97 0.67,4.74 -1.01,12.67 -2.3,15.92 -2.78,7 -2.94,7.89 -6.93,14.13 -4.3,6.71 -15.71,19.51 -24.61,23.84zm-15.78 -47.84c2.06,-4.68 6.61,-10.13 11.92,-14.27 4.03,-3.13 15.25,-9.51 20.22,-8.97 -7.49,3.25 -12.69,5.66 -19.15,10.44 -7.75,5.75 -10.06,10.33 -12.99,12.8zm42.09 -21.84c-18.08,9.79 -26.7,17.02 -35.14,34.35 -2.99,6.16 -2.3,9.02 -7.73,17.99 -2.26,3.74 -4.75,7.06 -8.17,10.67 -11.85,12.54 -23.64,15.58 -25.74,17.5 0.98,1.8 8.21,3.41 10.77,3.79 22.7,3.41 46.76,-11.6 61.27,-27.64 17.02,-18.81 26.77,-52.19 -0.34,-63.93 -2.91,-1.27 -7.46,-2.15 -11.58,-2.41 -22.43,-1.38 -46.59,14.01 -60.2,31.1 -9.73,12.23 -17.86,30.4 -12.03,45.84 1.3,3.43 5.76,10.54 8.48,10.74 2.11,0.15 9.52,-6.07 11.35,-7.6 6.8,-5.68 12.53,-12.2 16.62,-18.53 1.02,-1.58 2.08,-3.46 2.81,-5 0.45,-0.95 0.99,-1.67 1.35,-2.65l3.05 -8.35c3.32,-8.37 9.97,-17.94 18.25,-24.24 5.98,-4.56 19.54,-12.03 26.98,-11.63z"/>
     <path class="fil3" d="M132.41 348.36c-2.66,-9.08 1.96,-20.51 6.82,-27.65 1.15,-1.7 4.73,-6.23 6.73,-7.07 -2.1,1.58 -8.31,12.72 -9.67,16.21l-1.54 4.52c-0.94,2.94 -1.4,6.18 -1.87,9.33 -0.2,1.36 -0.16,3.59 -0.47,4.66zm-9.8 60.05c0.34,-4.62 0.23,-7.7 1.29,-11.79 3.57,-13.82 7.95,-19.7 16.47,-30.61 -3.32,-11.45 -5.61,-19.74 -1.69,-32 1.46,-4.56 3.42,-8.82 6.29,-13.15 1.56,-2.34 7.3,-9.96 10.48,-11.2 -0.66,0.76 -2.46,3.94 -2.99,4.91l-2.73 5.52c-4.63,10.57 -7.09,26.48 -1.93,38.26 5.53,-4.09 6.28,-5.78 13.96,-10.46 9.57,-5.83 9.95,-4.84 17.96,-8.6 -0.61,-7.09 -4.34,-15.06 -7.69,-21.43 3.55,2.38 7.27,10.44 8.69,14.92 0.54,1.72 0.86,4.36 1.72,5.74l4.01 -1.1c-0.02,-3.1 -2.86,-10.02 -4.35,-12.89 -2.02,-3.89 -4.45,-7.01 -7.31,-9.8 -5.29,-5.17 -12.06,-7.87 -18.92,-8.48 -16.87,-1.51 -32.44,10.51 -40.81,22.26 -7.8,10.97 -13.07,24.24 -13.45,39.55 -0.28,11.64 3.2,25.54 12.12,34.34 1.98,1.95 6.77,5.85 8.88,6.01z"/>
    </g>
   </g>
  </g>
 </g>
</svg>
