<?xml version="1.0" encoding="UTF-8"?>
<!DOCTYPE svg PUBLIC "-//W3C//DTD SVG 1.1//EN" "http://www.w3.org/Graphics/SVG/1.1/DTD/svg11.dtd">
<!-- Creator: CorelDRAW 2018 (64 Bit Versão de avaliação) -->
<svg xmlns="http://www.w3.org/2000/svg" xml:space="preserve" width="3000px" height="3000px" version="1.1" style="shape-rendering:geometricPrecision; text-rendering:geometricPrecision; image-rendering:optimizeQuality; fill-rule:evenodd; clip-rule:evenodd"
viewBox="0 0 3000 3000"
 xmlns:xlink="http://www.w3.org/1999/xlink">
 <defs>
  <style type="text/css">
   <![CDATA[
    .fil1 {fill:none}
    .fil0 {fill:#2E1A0C}
   ]]>
  </style>
   <clipPath id="id0">
    <path d="M0 0l3000 0 0 3000 -3000 0 0 -3000z"/>
   </clipPath>
 </defs>
 <g id="Camada_x0020_1">
  <metadata id="CorelCorpID_0Corel-Layer"/>
  <g>
  </g>
  <g style="clip-path:url(#id0)">
   <g>
    <path class="fil0" d="M261.74 513.48c-45.19,0 -83.92,-38.73 -83.92,-86.07 0,-45.18 38.73,-83.91 83.92,-83.91l219.46 0c2.16,0 6.46,0 8.61,0 77.46,2.15 146.31,17.21 204.41,53.79 64.54,40.88 111.88,103.28 137.7,195.8 0,2.15 0,4.3 2.15,6.45l21.52 86.07 1882.67 0c47.34,0 83.92,38.73 83.92,83.91 0,8.61 -2.16,17.21 -4.31,25.82l-219.46 884.32c-8.61,38.73 -43.04,64.55 -81.76,64.55l0 0 -1377.05 0c30.12,111.88 60.25,172.13 101.13,200.1 49.49,32.28 135.55,34.43 279.71,32.28l2.15 0 0 0 972.54 0c47.33,0 83.91,38.72 83.91,83.91 0,47.34 -38.73,83.91 -83.91,83.91l-972.54 0 0 0c-178.58,2.15 -288.32,-2.15 -376.53,-60.24 -90.37,-60.25 -137.71,-163.53 -185.04,-350.72l0 0 -288.32 -1090.87c0,-2.16 0,-2.16 -2.15,-4.31 -12.91,-47.33 -34.43,-79.61 -64.55,-96.82 -30.13,-19.36 -71.01,-27.97 -118.34,-27.97 -2.15,0 -4.31,0 -6.46,0l-219.46 0 0 0zm1981.65 1818.22c-65.29,0 -118.25,52.95 -118.25,118.24 0,65.29 52.96,118.25 118.25,118.25 65.29,0 118.24,-52.96 118.24,-118.25 0,-65.29 -52.95,-118.24 -118.24,-118.24zm-905.84 0c-65.29,0 -118.24,52.95 -118.24,118.24 0,65.29 52.95,118.25 118.24,118.25 65.29,0 118.24,-52.96 118.24,-118.25 0,-65.29 -52.95,-118.24 -118.24,-118.24zm905.84 -88.31c114.03,0 206.55,92.52 206.55,206.55 0,114.04 -92.52,206.56 -206.55,206.56 -114.04,0 -206.56,-92.52 -206.56,-206.56 0,-114.03 92.52,-206.55 206.56,-206.55l0 0zm-905.84 0c114.04,0 206.56,92.52 206.56,206.55 0,114.04 -92.52,206.56 -206.56,206.56 -114.03,0 -206.55,-92.52 -206.55,-206.56 0,-114.03 92.52,-206.55 206.55,-206.55l0 0zm-434.63 -1389.95l191.5 720.79 1357.68 0 178.58 -720.79 -1727.76 0 0 0z"/>
   </g>
  </g>
  <polygon class="fil1" points="0,0 3000,0 3000,3000 0,3000 "/>
 </g>
</svg>
