<?xml version="1.0" encoding="UTF-8"?>
<svg xmlns="http://www.w3.org/2000/svg" xmlns:xlink="http://www.w3.org/1999/xlink" width="32px" height="32px" viewBox="0 0 32 32" version="1.1">
<g id="surface1">
<path style=" stroke:none;fill-rule:evenodd;fill:rgb(18.039216%,10.196078%,4.705882%);fill-opacity:1;" d="M 14.191406 5.371094 C 18.828125 5.121094 22.582031 8.628906 22.839844 12.929688 C 23.117188 17.558594 19.453125 21.183594 15.132812 21.4375 C 10.46875 21.710938 6.683594 18.195312 6.433594 13.871094 C 6.160156 9.222656 9.84375 5.601562 14.191406 5.371094 Z M 19.949219 21.582031 C 20.046875 21.679688 20.191406 21.960938 20.285156 22.085938 L 22.667969 24.859375 C 22.804688 25 22.929688 25.179688 23.066406 25.324219 C 23.203125 25.46875 23.3125 25.621094 23.457031 25.769531 L 24.457031 26.929688 C 24.820312 27.328125 25.027344 27.664062 25.515625 28 C 26.570312 28.730469 27.402344 28.230469 26.988281 26.871094 C 26.863281 26.460938 26.605469 26.019531 26.382812 25.746094 L 25.601562 24.828125 C 25.449219 24.660156 25.34375 24.515625 25.199219 24.367188 C 25.058594 24.222656 24.9375 24.042969 24.800781 23.902344 C 24.453125 23.542969 23.636719 22.550781 23.210938 22.0625 L 22.421875 21.152344 C 22.15625 20.835938 21.890625 20.519531 21.613281 20.230469 L 22.140625 19.609375 C 22.335938 19.382812 22.472656 19.195312 22.652344 18.945312 C 23.695312 17.496094 24.328125 15.535156 24.375 13.652344 C 24.433594 11.429688 23.691406 9.152344 22.363281 7.46875 C 21.8125 6.769531 21.328125 6.285156 20.625 5.71875 C 19.277344 4.636719 17.433594 3.886719 15.59375 3.710938 C 14.164062 3.570312 12.730469 3.753906 11.472656 4.1875 C 10.875 4.390625 10.363281 4.636719 9.855469 4.914062 C 9.019531 5.375 8.492188 5.808594 7.863281 6.414062 C 7.757812 6.515625 7.675781 6.609375 7.566406 6.707031 C 7.417969 6.839844 7.402344 6.890625 7.289062 7.011719 C 7.089844 7.21875 6.9375 7.433594 6.765625 7.664062 C 4.21875 11.066406 4.351562 15.945312 6.765625 19.144531 C 7.457031 20.0625 8.148438 20.773438 9.132812 21.441406 C 10.058594 22.066406 11.089844 22.574219 12.386719 22.886719 C 14.324219 23.351562 16.570312 23.183594 18.40625 22.390625 C 19.28125 22.015625 19.242188 21.964844 19.949219 21.582031 Z M 19.949219 21.582031 "/>
</g>
</svg>
