<?xml version="1.0" encoding="UTF-8"?>
<!DOCTYPE svg PUBLIC "-//W3C//DTD SVG 1.1//EN" "http://www.w3.org/Graphics/SVG/1.1/DTD/svg11.dtd">
<!-- Creator: CorelDRAW 2018 (64 Bit Versão de avaliação) -->
<svg xmlns="http://www.w3.org/2000/svg" xml:space="preserve" width="3000px" height="3000px" version="1.1" style="shape-rendering:geometricPrecision; text-rendering:geometricPrecision; image-rendering:optimizeQuality; fill-rule:evenodd; clip-rule:evenodd"
viewBox="0 0 3000 3000"
 xmlns:xlink="http://www.w3.org/1999/xlink">
 <defs>
  <style type="text/css">
   <![CDATA[
    .fil1 {fill:none}
    .fil0 {fill:#2E1A0C}
   ]]>
  </style>
   <clipPath id="id0">
    <path d="M0 0l3000 0 0 3000 -3000 0 0 -3000z"/>
   </clipPath>
 </defs>
 <g id="Camada_x0020_1">
  <metadata id="CorelCorpID_0Corel-Layer"/>
  <g>
  </g>
  <g style="clip-path:url(#id0)">
   <g>
    <path class="fil0" d="M1258.13 1796.2l483.86 -0.04 -0.02 699.15 -483.9 0.08 0.06 -699.19zm-428.27 -652.64c37.19,-29.38 141.34,-131.71 181.56,-165.91l397.68 -359.49c13.36,-11.98 7.05,-9.73 30.24,-28.2l52.47 -47.4c0.55,-0.5 1.39,-1.28 1.9,-1.73 0.52,-0.47 1.59,-1.33 2.02,-1.71l12.52 3.44c0.56,0.51 1.26,1.23 1.81,1.74l82.76 75.45c80.93,69.02 165.45,153.89 244.33,220.34 11.19,9.44 19.02,18.9 30.27,28.17 43.73,36.05 141.01,132.66 181.49,165.96 13.8,11.35 16.98,14.16 30.58,27.91 10.46,10.58 21.36,16.18 31.39,27.23l361.3 330.38c-77.23,5.33 -85.08,49.59 -85.14,125.58 -0.09,306.83 2.74,642.6 -0.09,949.43l-483.47 -0.27 -0.1 -753.03c0.16,-63.88 -20.94,-106.38 -86.78,-106.38l-626.25 0c-59.51,0 -93.24,29.07 -93.65,89.18 -0.96,251.94 2.19,518.39 -0.12,770.55l-483.53 -0.33 -0.03 -897.54c0.02,-91.7 13.44,-169.54 -84.8,-177.48l301.64 -275.89zm1718.58 437.64c35.75,0.24 139.09,4.62 165.09,-5.9 35.85,-14.5 66.34,-61.76 41.18,-111.17 -13.77,-27.03 -102.09,-98.33 -130.87,-127.28l-88.79 -79.87c-11.13,-8.81 -11.88,-9.8 -23.08,-21.61l-88.53 -80.1c-9.66,-7.65 -13.36,-10.18 -21.83,-19.48l-199.48 -182.39c-8.06,-6.9 -15.34,-11.31 -22.74,-18.71 -10.32,-10.31 -11.82,-13.09 -22.84,-21.82l-109.7 -100.15c-31.46,-25.33 -84.81,-79.69 -111.56,-101.75 -8.59,-7.09 -14.83,-10.77 -22.53,-18.9 -17.49,-18.46 -26.61,-22.44 -42.63,-39.86l-224.08 -202.64c-16.3,-17.71 -24.97,-21.58 -42.46,-40.05 -8.25,-8.72 -15.47,-12.84 -24.39,-20.46 -24.91,-21.27 -71.11,-79.15 -139.65,-19.02l-111.69 101.66c-8.45,7.23 -12.12,13.38 -20.56,20.58 -31.21,26.66 -59.43,54.75 -91.11,81.07l-132.3 122.18c-32.87,31.13 -76.68,66.21 -111.81,101.53 -7.42,7.48 -14.67,11.89 -22.7,18.75l-44.94 41.06c-26.32,27.79 -82.07,73.22 -110.15,99.78l-66.26 60.99c-10.45,8.35 -12.81,12.73 -22.62,22 -7.75,7.32 -14.86,11.43 -22.86,18.6 -9.09,8.15 -12.65,14.24 -22.46,22.15 -8.92,7.2 -14.75,11.08 -22.17,19.2 -15.88,17.39 -25.17,21.41 -42.67,39.82l-245.71 222.33c-10.11,8.03 -11.43,10.93 -20.85,20.34 -21.89,21.88 -70.49,54.92 -84.49,84.33 -23.76,49.95 8.57,96.66 44.83,109.85 24.93,9.08 127.99,5.16 162.59,4.94l0 934.46c0,110.4 2.98,140.69 122.8,140.81 43.58,0.04 87.18,0.04 130.75,0l1727.36 -0.15c121.22,0.33 115.64,-44.47 115.87,-147.54l0.04 -927.58z"/>
   </g>
  </g>
  <polygon class="fil1" points="0,0 3000,0 3000,3000 0,3000 "/>
 </g>
</svg>
