<?xml version="1.0" encoding="UTF-8"?>
<!DOCTYPE svg PUBLIC "-//W3C//DTD SVG 1.1//EN" "http://www.w3.org/Graphics/SVG/1.1/DTD/svg11.dtd">
<!-- Creator: CorelDRAW 2018 (64 Bit Versão de avaliação) -->
<svg xmlns="http://www.w3.org/2000/svg" xml:space="preserve" width="3000px" height="3000px" version="1.1" style="shape-rendering:geometricPrecision; text-rendering:geometricPrecision; image-rendering:optimizeQuality; fill-rule:evenodd; clip-rule:evenodd"
viewBox="0 0 3000 3000"
 xmlns:xlink="http://www.w3.org/1999/xlink">
 <defs>
  <style type="text/css">
   <![CDATA[
    .fil1 {fill:none}
    .fil0 {fill:#2E1A0C}
   ]]>
  </style>
   <clipPath id="id0">
    <path d="M0 0l3000 0 0 3000 -3000 0 0 -3000z"/>
   </clipPath>
 </defs>
 <g id="Camada_x0020_1">
  <metadata id="CorelCorpID_0Corel-Layer"/>
  <g>
  </g>
  <g style="clip-path:url(#id0)">
   <g>
    <g id="_1855468111184">
     <path class="fil0" d="M524.5 493.65c0,-46.47 16.13,-56.57 62.58,-56.57 592.6,0 1185.2,0 1777.79,0 50.11,0 54.1,-3.33 100.33,10.3 4.72,12.43 10.3,26.57 10.3,46.27 0.04,262.58 8.65,1993.17 -3.43,2059.44 -67.43,-23.91 -114.73,-73.34 -203.29,-73.34 -125.34,0 -165.8,81.98 -258.26,81.96 -89.97,-0.01 -140.02,-81.96 -252.26,-81.96 -124.65,0 -165.71,81.96 -258.26,81.96 -89.84,0 -139.28,-81.96 -252.26,-81.96 -124.01,0 -164.89,81.64 -258.24,81.96 -89.56,0.3 -138.43,-81.96 -252.27,-81.96 -99.06,0 -135.29,47.12 -210.07,73.45 -7.78,-66.66 -2.66,-1797.11 -2.66,-2059.55zm-93.58 -12.01l0 2060.75c0,62.34 37.05,102.1 102.1,102.1 72.55,0 110.44,-72.07 210.21,-72.07 69.16,0 140.29,84.08 246.25,84.08 116.16,0 157.82,-84.08 264.27,-84.08 69.16,0 140.29,84.08 246.25,84.08 116.16,0 157.82,-84.08 264.27,-84.08 67.5,0 143.64,84.08 240.24,84.08 124.59,0 162.81,-84.08 270.27,-84.08 69.53,0 116.53,72.07 204.21,72.07 54.78,0 90.09,-47.71 90.09,-102.1l0 -2060.75c0,-77.62 -69.37,-138.14 -150.15,-138.14l-1837.86 0c-50.44,0 -79.83,15.92 -107.62,42.53l-6.06 5.96c-0.5,0.52 -7.25,8.03 -8.47,9.55 -10.72,13.36 -6.11,5.06 -13.71,22.32 -6.94,15.75 -14.29,38.48 -14.29,57.78z"/>
     <g>
      <rect class="fil0" transform="matrix(9.22108E-15 -0.069703 6.91611 3.66705E-14 718.279 1321.65)" width="1517.81" height="226.06" rx="113.03" ry="113.03"/>
      <rect class="fil0" transform="matrix(8.09767E-15 -0.069703 6.07351 3.66705E-14 813.516 1552.9)" width="1517.81" height="226.06" rx="113.03" ry="113.03"/>
      <rect class="fil0" transform="matrix(6.97426E-15 -0.069703 5.23092 3.66705E-14 908.754 1784.15)" width="1517.81" height="226.06" rx="113.03" ry="113.03"/>
     </g>
    </g>
   </g>
  </g>
  <polygon class="fil1" points="0,0 3000,0 3000,3000 0,3000 "/>
 </g>
</svg>
