<?xml version="1.0" encoding="UTF-8"?>
<!DOCTYPE svg PUBLIC "-//W3C//DTD SVG 1.1//EN" "http://www.w3.org/Graphics/SVG/1.1/DTD/svg11.dtd">
<!-- Creator: CorelDRAW 2018 (64 Bit Versão de avaliação) -->
<svg xmlns="http://www.w3.org/2000/svg" xml:space="preserve" width="2422px" height="2644px" version="1.1" style="shape-rendering:geometricPrecision; text-rendering:geometricPrecision; image-rendering:optimizeQuality; fill-rule:evenodd; clip-rule:evenodd"
viewBox="0 0 2422 2643.5"
 xmlns:xlink="http://www.w3.org/1999/xlink">
 <defs>
  <style type="text/css">
   <![CDATA[
    .fil1 {fill:#2E1A0C}
    .fil0 {fill:#2E1A0C;fill-rule:nonzero}
   ]]>
  </style>
 </defs>
 <g id="Camada_x0020_1">
  <metadata id="CorelCorpID_0Corel-Layer"/>
  <g id="_2526146859792">
   <path class="fil0" d="M25.5 1878.29l49.77 -508.75c2.3,-25.81 3.53,-43.17 3.53,-52.23 0,-13.52 -5.07,-24.73 -15.05,-33.79 -10.14,-9.07 -25.96,-13.52 -47.47,-13.52l-16.28 0 4.61 -16.59 240.86 0 -5.07 16.59c-26.12,0.31 -43.93,3.07 -53.77,8.14 -9.67,5.22 -17.35,13.98 -23.19,26.42 -2.92,6.61 -6.14,25.5 -9.37,56.68l-35.79 364.82 239.32 -325.34c25.81,-35.33 42.09,-60.06 48.7,-74.04 4.45,-9.37 6.76,-17.51 6.76,-24.42 0,-8.14 -3.54,-15.36 -10.45,-21.36 -6.91,-5.99 -19.82,-9.67 -38.71,-10.9l5.38 -16.59 182.79 0 -4.45 16.59c-14.75,1.23 -26.42,3.99 -35.18,8.6 -16.44,7.83 -32.87,19.66 -49.15,35.48 -16.44,15.98 -42.25,48.08 -77.58,96.47l-343.62 467.74 -16.59 0zm561.13 -601.84c12.6,0 23.35,4.3 32.11,13.06 8.75,8.75 13.05,19.51 13.05,32.1 0,12.29 -4.45,22.89 -13.36,31.8 -8.91,8.91 -19.51,13.36 -31.8,13.36 -12.29,0 -22.88,-4.45 -31.79,-13.36 -8.91,-8.91 -13.37,-19.51 -13.37,-31.8 0,-12.59 4.3,-23.35 13.06,-32.1 8.75,-8.76 19.51,-13.06 32.1,-13.06zm19.67 178.8l-94.63 319.2c-6.3,21.51 -9.52,34.41 -9.52,38.71 0,4.61 1.38,8.3 3.84,11.21 2.61,2.77 5.68,4.3 9.21,4.3 4,0 8.91,-2.3 14.6,-6.91 15.36,-13.21 30.87,-32.41 46.54,-57.29l15.82 10.44c-19.51,30.88 -42.39,56.53 -68.66,76.96 -19.35,15.21 -37.94,22.73 -55.76,22.73 -11.67,0 -21.35,-3.68 -28.72,-10.9 -7.38,-7.22 -11.22,-16.28 -11.22,-27.19 0,-11.21 4.15,-29.8 12.14,-55.91l62.67 -203.69c9.68,-32.87 14.44,-53.46 14.44,-61.75 0,-6.61 -2.31,-11.98 -6.91,-16.13 -4.77,-4.3 -11.06,-6.3 -19.2,-6.3 -6.61,0 -20.13,1.69 -40.87,4.92l0 -17.51 156.23 -24.89zm50.23 29.49l127.95 -27.65c9.37,22.12 17.05,44.86 22.74,67.9 8.14,33.95 14.9,74.04 19.96,120.58 2.46,23.35 5.69,72.81 9.99,148.39 37.79,-41.32 60.37,-66.97 67.59,-76.96 39.94,-53.61 62.98,-85.1 68.97,-94.47 9.98,-15.82 16.9,-29.8 20.89,-41.78 3.38,-8.91 5.22,-17.51 5.68,-25.65 0,-7.84 -6.91,-16.75 -20.73,-26.88 -13.83,-10.3 -20.74,-21.66 -20.74,-34.26 0,-9.52 3.84,-18.12 11.37,-25.65 7.68,-7.53 16.59,-11.22 27.03,-11.22 12.44,0 23.5,5.23 33.03,15.52 9.52,10.29 14.28,23.19 14.28,38.4 0,15.36 -2.46,29.96 -7.22,44.09 -7.83,22.73 -22.42,50.53 -43.78,83.41 -21.35,32.72 -55.76,76.65 -103.22,131.79 -5.99,6.92 -39.48,41.63 -100.15,104.3l-16.59 0c-7.22,-189.55 -22.12,-307.98 -45.01,-354.99 -7.53,-15.2 -19.97,-22.88 -37.33,-22.88 -7.53,0 -18.13,1.38 -31.95,3.99l-2.76 -15.98zm843.77 -21.19l-86.63 305.37 -10.45 40.71c-1.08,3.99 -1.69,7.37 -1.69,9.98 0,4.3 1.08,7.99 3.07,11.22 1.69,2.3 3.84,3.53 6.45,3.53 2.77,0 6.3,-2.15 10.76,-6.3 8.29,-7.99 19.35,-25.65 33.02,-52.99l15.36 10.9c-17.51,30.11 -35.48,52.54 -53.91,66.98 -18.44,14.44 -35.49,21.65 -51.15,21.65 -10.91,0 -19.36,-3.22 -25.35,-9.67 -5.99,-6.3 -8.91,-15.67 -8.91,-27.81 0,-14.59 3.38,-33.94 9.98,-57.75l9.99 -34.1c-43.16,51.15 -82.95,86.94 -119.2,107.37 -25.96,14.59 -51.61,21.96 -76.65,21.96 -23.97,0 -44.86,-8.9 -62.21,-26.72 -17.52,-17.82 -26.27,-42.4 -26.27,-73.74 0,-46.85 15.51,-96.31 46.54,-148.38 30.88,-52.08 70.36,-93.7 117.97,-125.04 37.33,-24.73 72.66,-37.17 105.69,-37.17 19.81,0 36.25,4.45 49.46,13.21 13.06,8.75 23.04,23.34 29.95,43.62l14.44 -45.77 69.74 -11.06zm-165.74 22.12c-20.89,0 -43.01,8.9 -66.52,26.57 -33.33,25.04 -62.98,62.06 -88.94,111.37 -25.96,49.15 -38.86,93.7 -38.86,133.48 0,19.97 5.84,35.95 17.36,47.47 11.52,11.67 24.73,17.51 39.63,17.51 37.02,0 77.26,-23.66 120.58,-71.12 53,-63.13 78.65,-127.8 76.96,-194.16 0,-25.04 -5.38,-43.17 -16.13,-54.38 -10.75,-11.21 -25.5,-16.74 -44.08,-16.74zm527.95 280.03c-31.34,37.48 -62.82,64.97 -94.78,82.48 -31.79,17.67 -65.43,26.42 -100.92,26.42 -42.7,0 -76.03,-11.98 -100,-35.94 -23.81,-23.96 -35.79,-56.22 -35.79,-96.62 0,-45.93 12.91,-90.94 38.56,-135.33 25.65,-44.24 60.21,-80.34 103.68,-107.99 43.32,-27.8 85.87,-41.63 127.65,-41.63 32.88,0 57.3,6.76 73.58,20.43 16.13,13.68 24.27,30.42 24.27,50.24 0,18.58 -5.68,34.4 -17.05,47.61 -8.29,10.3 -18.58,15.36 -30.87,15.36 -9.22,0 -16.9,-3.07 -23.04,-9.06 -6.15,-5.99 -9.22,-13.36 -9.22,-22.43 0,-5.68 1.07,-10.9 3.38,-15.82 2.15,-4.76 6.91,-10.44 13.82,-17.2 7.07,-6.76 11.37,-11.68 12.75,-14.59 1.54,-3.08 2.31,-6.15 2.31,-9.53 0,-6.3 -2.92,-11.52 -8.61,-15.67 -8.75,-5.99 -21.19,-9.06 -37.32,-9.06 -29.8,0 -59.14,10.29 -88.33,31.03 -29.03,20.58 -53.91,49.92 -74.5,88.02 -24.88,46.08 -37.33,92.16 -37.33,138.4 0,30.57 8.76,54.69 26.43,72.5 17.51,17.82 41.47,26.73 71.89,26.73 23.34,0 46.39,-5.84 69.27,-17.36 22.89,-11.52 48.54,-32.41 77.11,-62.67l13.06 11.68zm157.76 -70.82c-1.84,14.9 -2.77,27.19 -2.77,37.02 0,26.58 9.68,49.16 28.88,67.74 19.2,18.59 42.71,27.96 70.2,27.96 21.97,0 43.16,-4.46 63.44,-13.21 20.28,-8.76 50.54,-28.26 90.63,-58.37l9.22 13.05c-71.12,70.36 -139.02,105.53 -203.53,105.53 -43.94,0 -76.96,-13.82 -99.24,-41.32 -22.27,-27.65 -33.33,-58.06 -33.33,-91.24 0,-44.7 13.83,-90.32 41.47,-137.02 27.5,-46.85 62.22,-83.1 103.85,-109.06 41.78,-25.96 84.63,-38.87 128.87,-38.87 31.8,0 55.3,6.46 70.66,19.36 15.21,12.9 22.89,28.26 22.89,45.93 0,24.88 -9.98,48.85 -30.11,71.58 -26.57,29.8 -65.59,53.76 -117.05,72.04 -34.25,12.45 -82.18,21.97 -144.08,28.88zm3.22 -22.12c45.47,-5.07 82.49,-13.82 111.06,-26.11 37.79,-16.59 66.21,-36.41 85.1,-59.45 18.9,-22.89 28.27,-44.85 28.27,-65.59 0,-12.6 -4,-22.89 -12.14,-30.72 -8.14,-7.84 -19.81,-11.68 -34.87,-11.68 -31.33,0 -64.51,16.29 -99.69,49.01 -35.18,32.56 -61.14,80.79 -77.73,144.54z"/>
   <path class="fil0" d="M1755.18 1944.74l-27.46 120.49 -10.08 0 -1.13 -30.17c-0.93,-10.92 -2.98,-20.73 -6.35,-29.32 -3.27,-8.6 -8.22,-16.07 -14.85,-22.33 -6.63,-6.35 -15.04,-11.3 -25.12,-14.85 -10.09,-3.55 -21.3,-5.32 -33.63,-5.32 -32.88,0 -61.74,8.96 -86.31,26.9 -31.47,22.79 -56.13,55.01 -73.97,96.67 -14.67,34.37 -22.05,69.12 -22.05,104.43 0,35.96 10.56,64.73 31.76,86.12 21.2,21.48 48.76,32.22 82.76,32.22 25.59,0 48.38,-5.7 68.37,-17 19.99,-11.39 38.58,-28.86 55.76,-52.49l12.99 0c-20.09,31.94 -42.41,55.39 -66.88,70.43 -24.47,15.03 -53.8,22.6 -87.9,22.6 -30.35,0 -57.16,-6.35 -80.6,-19.06 -23.35,-12.7 -41.1,-30.54 -53.34,-53.52 -12.23,-22.97 -18.4,-47.73 -18.4,-74.25 0,-40.54 10.84,-79.96 32.6,-118.25 21.67,-38.39 51.47,-68.56 89.29,-90.42 37.83,-21.95 76.04,-32.88 114.52,-32.88 18.03,0 38.29,4.3 60.71,12.99 9.81,3.64 16.91,5.51 21.3,5.51 4.39,0 8.22,-0.94 11.49,-2.81 3.27,-1.77 8.78,-7 16.44,-15.69l10.08 0zm256.49 136.19l-52.68 185.68 -6.35 24.76c-0.65,2.43 -1.03,4.48 -1.03,6.07 0,2.61 0.66,4.86 1.87,6.82 1.03,1.4 2.34,2.15 3.93,2.15 1.68,0 3.82,-1.31 6.53,-3.83 5.05,-4.86 11.77,-15.6 20.09,-32.23l9.34 6.63c-10.65,18.31 -21.58,31.95 -32.79,40.73 -11.21,8.78 -21.58,13.17 -31.1,13.17 -6.63,0 -11.77,-1.96 -15.41,-5.89 -3.65,-3.83 -5.42,-9.52 -5.42,-16.9 0,-8.88 2.05,-20.65 6.07,-35.12l6.07 -20.74c-26.25,31.1 -50.44,52.87 -72.48,65.29 -15.79,8.87 -31.38,13.36 -46.61,13.36 -14.57,0 -27.27,-5.42 -37.83,-16.26 -10.65,-10.83 -15.97,-25.77 -15.97,-44.83 0,-28.49 9.43,-58.56 28.3,-90.23 18.77,-31.66 42.78,-56.98 71.74,-76.03 22.69,-15.04 44.18,-22.6 64.26,-22.6 12.05,0 22.04,2.7 30.07,8.03 7.94,5.32 14.01,14.2 18.22,26.53l8.78 -27.84 42.4 -6.72zm-100.78 13.45c-12.7,0 -26.15,5.41 -40.44,16.16 -20.27,15.22 -38.3,37.73 -54.09,67.71 -15.78,29.89 -23.63,56.98 -23.63,81.17 0,12.15 3.55,21.86 10.56,28.87 7,7.09 15.04,10.64 24.1,10.64 22.51,0 46.98,-14.38 73.32,-43.24 32.22,-38.39 47.82,-77.72 46.79,-118.07 0,-15.22 -3.27,-26.24 -9.8,-33.06 -6.54,-6.82 -15.51,-10.18 -26.81,-10.18zm277.51 -11.21l-4.95 17.93 -40.54 0 -32.97 121.24c-14.67,52.31 -28.77,92.85 -42.41,121.61 -19.24,40.54 -39.88,68.56 -62.11,84.07 -16.82,11.86 -33.72,17.75 -50.63,17.75 -10.93,0 -20.27,-3.27 -28.02,-9.91 -5.7,-4.57 -8.5,-10.46 -8.5,-17.74 0,-5.89 2.33,-10.93 6.91,-15.23 4.67,-4.29 10.37,-6.44 17.09,-6.44 4.95,0 9.06,1.59 12.43,4.67 3.36,3.08 5.04,6.63 5.04,10.65 0,4.01 -1.87,7.84 -5.7,11.3 -2.89,2.52 -4.39,4.48 -4.39,5.7 0,1.68 0.66,2.99 1.87,3.83 1.68,1.3 4.2,1.96 7.66,1.96 7.75,0 15.88,-2.43 24.47,-7.38 8.59,-4.95 16.25,-12.33 22.89,-22.05 6.72,-9.8 13.07,-23.91 19.05,-42.4 2.71,-7.57 9.9,-32.79 21.76,-75.47l52.87 -186.16 -53.61 0 3.92 -17.93c16.91,0 28.77,-1.03 35.49,-3.18 6.73,-2.05 12.89,-6.07 18.5,-11.95 5.6,-5.98 12.23,-17.1 19.99,-33.26 10.36,-21.95 20.36,-38.85 29.89,-50.9 12.98,-16.25 26.71,-28.4 41,-36.52 14.38,-8.13 27.83,-12.15 40.54,-12.15 13.35,0 24.1,3.55 32.22,10.65 8.13,7.1 12.15,14.76 12.15,23.07 0,6.45 -2.06,11.87 -6.26,16.26 -4.21,4.39 -9.53,6.63 -16.16,6.63 -5.61,0 -10.18,-1.68 -13.73,-4.95 -3.55,-3.27 -5.33,-7.29 -5.33,-11.86 0,-2.9 1.13,-6.54 3.37,-10.84 2.24,-4.3 3.36,-7.19 3.36,-8.69 0,-2.52 -0.75,-4.48 -2.24,-5.79 -2.24,-1.77 -5.42,-2.71 -9.62,-2.71 -10.56,0 -19.99,3.74 -28.4,11.31 -11.21,9.99 -21.3,25.59 -30.17,46.79 -4.58,11.12 -13.54,37.18 -26.99,78.09l40.26 0zm46.42 138.42c-1.12,9.06 -1.68,16.54 -1.68,22.51 0,16.16 5.88,29.89 17.56,41.2 11.67,11.3 25.96,17 42.68,17 13.36,0 26.25,-2.71 38.58,-8.04 12.33,-5.32 30.73,-17.18 55.11,-35.49l5.6 7.94c-43.24,42.78 -84.53,64.17 -123.76,64.17 -26.71,0 -46.8,-8.41 -60.34,-25.13 -13.54,-16.81 -20.27,-35.31 -20.27,-55.48 0,-27.18 8.41,-54.92 25.22,-83.32 16.72,-28.49 37.83,-50.53 63.14,-66.32 25.41,-15.78 51.47,-23.63 78.37,-23.63 19.33,0 33.63,3.93 42.97,11.77 9.24,7.85 13.91,17.19 13.91,27.93 0,15.13 -6.07,29.7 -18.3,43.53 -16.16,18.12 -39.89,32.69 -71.18,43.8 -20.83,7.57 -49.97,13.36 -87.61,17.56zm1.96 -13.45c27.65,-3.08 50.16,-8.4 67.53,-15.87 22.98,-10.09 40.26,-22.14 51.75,-36.15 11.49,-13.92 17.18,-27.28 17.18,-39.89 0,-7.66 -2.42,-13.91 -7.38,-18.68 -4.95,-4.76 -12.04,-7.1 -21.2,-7.1 -19.05,0 -39.23,9.9 -60.62,29.8 -21.39,19.8 -37.17,49.13 -47.26,87.89zm185.22 -262.84l-80.14 93.59 -9.53 0 28.02 -93.59 61.65 0z"/>
  </g>
  <g id="_2526146860176">
   <g>
    <path class="fil1" d="M1066.26 642.75c-18.23,-4.16 -54.77,-26.46 -64.43,-35.63 -22.51,-21.38 -28.8,-34.19 -15.62,-68.16 -36.25,23.11 -31.14,51.23 -30.47,81.47 0.82,36.54 5.38,68.89 10.5,104.2 17.17,93.3 61.75,202.52 125.73,271.55 10.6,11.44 18.69,17.58 27.39,28.99 4.68,2.8 1.68,0.88 6.39,4.8 2.86,2.39 3.78,3.28 6.66,5.57 4.81,3.82 8.92,7.77 14.22,10.73 -4.96,-8.3 -11.3,-14.41 -17.07,-22.2 -14.52,-19.62 -40.26,-52.82 -48.9,-74.21 -37.03,-66.84 -67.22,-160.13 -75.26,-249.62l-3.2 -44.13c9.28,2.85 19.1,9.71 28.6,14.2 9.37,4.42 17.65,7.75 27.18,11.19l1.9 0.76c31.6,14.05 88.74,26.59 126.78,32.66 24.2,3.86 46.51,7.17 70.44,9.69 14.93,1.57 66.88,2.14 75.25,7.06l123.83 -1.53c71.87,-3.53 150.31,-12.74 219.03,-31.46 43.03,-11.72 81.73,-30.77 93.94,-33.96 -16.36,142.12 -84.47,281.9 -188.21,363.7 -17,13.4 -89.69,65.71 -117.58,66.17 -15.93,16.08 -109.57,23.72 -126.69,23.43 -23.51,-0.39 -45.68,-2.82 -68.29,-7.63 -21.71,-4.62 -40.47,-12.84 -58.89,-16.96 21.28,17.6 66.86,33.33 99.81,41.71 42.26,10.74 87.43,11.9 132.46,6.98 87.25,-14.54 169.68,-56.91 228.64,-120.47 141.42,-152.45 141.84,-296.59 157.49,-325.78 26.7,-49.82 122.39,-55.2 106.22,44.5 -7.55,46.52 -35.24,90.35 -56.95,119.44 -38.95,52.18 -44.41,50.94 -83.3,91.82 28.31,-7.21 79.84,-51.77 99.99,-73.09 51.28,-54.26 125.62,-173.48 72.34,-244.67 -10.39,-13.88 -33.98,-26.08 -58.55,-29.1 -34.34,-4.21 -48.1,5.13 -75.78,12.57 0.5,-29.51 2.55,-44.36 -15.14,-63.38 -34.5,-37.08 -114.71,-69.53 -158.3,-74.39 33.13,15.19 111.43,42.1 101.79,93.28 -3.4,18.07 -18.01,29.93 -27.52,38.1 -40.4,34.72 -131.66,57.46 -197.22,66.94 -83.06,12.01 -165.02,14.07 -250,8.89 -37.67,-2.3 -79.04,-7.79 -115.09,-14.64 -24.05,-4.57 -87.87,-18.61 -104.12,-29.39z"/>
    <path class="fil1" d="M1371.88 1258.71c-49.87,3.88 -123.15,0.09 -174.5,-3.63 -57.45,-4.16 -106.02,-13.14 -160.4,-20.6l2.89 1.64c29.2,14.45 150.76,30.08 178.22,32.77 33.55,3.28 65.94,4.85 100.17,6.38 35.13,1.57 71.95,-1.14 106.83,0.54 102.4,-4.46 206.23,-11.27 298.01,-39.69 179.51,-55.61 33.09,-122.46 -35.05,-130.92l7.01 4.54c15.3,7.97 23.86,8.41 39.99,23.55 16.5,15.49 19.44,32.26 1.87,49.07 -62.63,59.92 -279.38,70.93 -365.04,76.35z"/>
    <path class="fil1" d="M1407.85 270.3c14.38,11.59 45.15,52.02 56.92,72.51 15.36,26.75 32.14,61.77 29.73,101.52 -3.83,63.46 -39.33,87.79 -88.35,106.25 -28.45,10.72 -43.38,10.83 -50.8,13.66 39.1,6.97 87.73,-3.81 117.21,-21.05 26.02,-15.22 48.76,-44.41 57.09,-85.97 8.72,-43.51 -2.13,-84.4 -18.53,-117.74 -20.78,-42.23 -37.63,-53.46 -61.85,-83.85 -15.23,-16.27 -45,-41.74 -62.49,-58.03 -29.75,-27.72 -63.78,-60.14 -60.06,-103.39 1.33,-15.46 6.34,-19.11 9.95,-30.07 -34.77,30.53 -25.67,80.03 -1.27,117.25 17.25,26.32 70.56,84.33 72.45,88.91z"/>
    <path class="fil1" d="M1274.83 337.62c14.26,9.37 58.96,50.51 72.13,63.65 10.63,10.61 20.16,24.36 24.8,42.56 6.84,26.84 1.87,38.65 -2.83,62 21.39,-16.64 27.38,-71.6 7.13,-109.12 -22.01,-40.79 -54.94,-62.57 -65.5,-80.4 -13.84,-9.09 -48.09,-49.22 -58.66,-63.67 -54.42,-74.43 -52.03,-158.85 8.49,-224.58 15.56,-16.89 22.47,-17.44 35.12,-28.06 -32.69,2.77 -69.56,37.18 -82.35,54.52 -19.3,26.17 -35.21,61.36 -36.54,103.05 -2.86,89.6 59.39,141.37 98.21,180.05z"/>
   </g>
   <path class="fil1" d="M1951.74 908.19c115.6,134.38 194.57,300.85 223.14,490.83 -14.03,2.26 -27.77,5.59 -41.21,9.93 -22.15,-180.86 -93.21,-344.39 -201.73,-479.48 2.68,-2.67 5.21,-5.27 7.57,-7.77 4.08,-4.31 8.16,-8.83 12.23,-13.51zm-1059.25 -317.38c-313.78,92.39 -554.68,309.41 -660.85,601.09l-36.17 0c116.36,-296.86 369.79,-535.77 698.31,-617.37 -0.75,5.54 -1.14,10.92 -1.29,16.28zm888.92 1780.98c-219.91,159.94 -501.32,231.74 -771.15,199.18 35.04,-9.85 69.04,-25.63 100.61,-45.18 219.69,10.17 442.52,-47.24 624.72,-174.45 13.6,10.4 29.09,17.35 45.82,20.45zm-1458.4 -207.36c-44.64,-62.94 -84.12,-133.37 -117.22,-211.68 -22.43,-53.08 -39.84,-106.69 -52.71,-160.42l37.75 -51.38c27.47,150.29 83.87,279.43 160.64,387.16 -1.49,1.57 -2.96,3.16 -4.42,4.78 -8.94,9.95 -16.97,20.48 -24.04,31.54z"/>
   <g>
    <path class="fil1" d="M521.05 2382.13c-10.6,-2.42 -14.43,-4.9 -23.1,-9.59 -63.56,-34.4 -106.53,-87.71 -113.1,-164.1 1.92,1.63 21.7,49.92 26.86,59.31 9.36,17.01 20.39,34.05 32.54,48.04 27.33,31.45 48.57,45.87 76.8,66.34zm-3 -277.88c12.27,-8.54 84.52,0.67 106.25,5.52 8.87,1.98 27.88,7.8 33.52,7.54 1.22,-8.52 7.65,-14.95 7.84,-23.68 -27.63,-5.45 -34,-9.78 -69.81,-13.95 -82.13,-9.55 -168.18,13.64 -223.89,75.61 -106.21,118.13 -41.68,305.21 92.67,406.39 32.68,24.6 43.18,28.48 75.69,45.78l48.21 18.87c70.55,21.84 154.64,26.82 228.59,-8.83 12.31,-5.93 69.01,-35.01 54.58,-52.57 -2.53,-3.09 -23.87,-7.14 -36.01,-15.5 -10.16,-7 -3.85,-7.93 -16.01,-12.19 -16.83,-5.9 -35.08,-30.4 -43.53,-46.67 -15.12,-29.12 -6.29,-31.58 -21.89,-41.04 -13.77,-8.34 -35.73,-21.82 -51.51,-27.87 -48.04,-18.4 -38.17,-14.52 -90.79,-28.75 -75.05,-20.29 -150.6,-70.73 -187.37,-150.07 -9.34,-20.16 -26.86,-74.02 -20.47,-90.72 28.72,60.61 64.36,105.08 110.41,137.33 21.86,15.3 46.36,28.78 67.43,37.33 8.98,3.65 63.79,22.4 73.73,20.84 -17.21,-36.43 -22.32,-81.92 -21.37,-116.24 0.5,-17.97 2.2,-34.55 5.4,-51.41 1.7,-8.99 3.29,-15.28 5.43,-24.55 2.17,-9.43 6.06,-18.21 6.12,-24.12 -30.85,-12.7 -97.85,-26.47 -133.22,-27.05z"/>
    <path class="fil1" d="M878.86 2529.93c34.81,-18.68 57.08,-29.74 86.29,-54.47 37.42,-31.69 41.57,-48.11 58.45,-66.09 -7.07,13.83 -4.19,14.8 -19.95,36.4 -29.32,40.18 -74.35,73.97 -124.79,84.16zm210.23 -52.76c14.69,-18.45 60.89,-45.5 106.25,-117.11 22.65,-35.75 42.19,-78.14 50.16,-119.36 1.21,-6.22 2.11,-13.46 3.88,-18.8 3.15,22.47 -4.81,60.01 -10.91,75.39 -13.16,33.17 -13.93,37.38 -32.85,66.93 -20.36,31.79 -74.39,92.41 -116.53,112.95zm-74.77 -226.62c9.75,-22.14 31.32,-47.95 56.49,-67.56 19.06,-14.85 72.21,-45.06 95.75,-42.5 -35.48,15.39 -60.11,26.82 -90.67,49.47 -36.73,27.21 -47.68,48.92 -61.57,60.59zm199.35 -103.44c-85.63,46.35 -126.46,80.65 -166.39,162.71 -14.2,29.17 -10.92,42.7 -36.64,85.19 -10.71,17.7 -22.47,33.42 -38.67,50.56 -56.14,59.36 -111.99,73.8 -121.95,82.85 4.64,8.56 38.9,16.17 51.04,17.99 107.51,16.13 221.47,-54.98 290.18,-130.91 80.62,-89.1 126.78,-247.22 -1.63,-302.83 -13.78,-5.97 -35.32,-10.18 -54.81,-11.38 -106.25,-6.56 -220.69,66.34 -285.12,147.3 -46.09,57.91 -84.63,143.97 -57,217.11 6.14,16.25 27.29,49.91 40.16,50.85 10,0.72 45.08,-28.73 53.77,-35.99 32.2,-26.93 59.33,-57.8 78.71,-87.78 4.81,-7.45 9.86,-16.37 13.32,-23.67 2.13,-4.5 4.69,-7.93 6.4,-12.56l14.43 -39.52c15.72,-39.68 47.22,-84.99 86.42,-114.85 28.34,-21.58 92.58,-56.94 127.78,-55.07z"/>
    <path class="fil1" d="M804.89 2137.85c-12.59,-43.03 9.31,-97.16 32.3,-130.98 5.46,-8.03 22.39,-29.48 31.87,-33.45 -9.95,7.47 -39.34,60.24 -45.77,76.73l-7.31 21.44c-4.47,13.9 -6.62,29.25 -8.84,44.17 -0.96,6.44 -0.78,17.01 -2.25,22.09zm-46.39 284.39c1.61,-21.86 1.08,-36.48 6.09,-55.85 16.91,-65.43 37.63,-93.27 78.02,-144.97 -15.74,-54.23 -26.6,-93.46 -8.03,-151.53 6.92,-21.62 16.19,-41.82 29.83,-62.29 7.39,-11.08 34.54,-47.16 49.62,-53.05 -3.15,3.58 -11.65,18.64 -14.17,23.23l-12.92 26.18c-21.95,50.04 -33.58,125.42 -9.14,181.19 26.19,-19.38 29.72,-27.38 66.1,-49.55 45.32,-27.61 47.15,-22.91 85.07,-40.73 -2.9,-33.56 -20.55,-71.31 -36.42,-101.47 16.79,11.23 34.44,49.43 41.14,70.66 2.57,8.15 4.11,20.66 8.19,27.18l18.96 -5.19c-0.09,-14.71 -13.52,-47.49 -20.58,-61.09 -9.56,-18.42 -21.09,-33.17 -34.62,-46.39 -25.06,-24.48 -57.13,-37.29 -89.62,-40.19 -79.89,-7.12 -153.67,49.79 -193.29,105.45 -36.96,51.95 -61.91,114.8 -63.7,187.3 -1.36,55.15 15.16,120.99 57.41,162.66 9.35,9.22 32.07,27.72 42.06,28.45z"/>
   </g>
  </g>
 </g>
</svg>
